<?xml version="1.0" encoding="UTF-8" standalone="no"?>
<!-- Created with Inkscape (http://www.inkscape.org/) -->

<svg
   version="1.1"
   id="svg4246"
   width="154"
   height="154"
   viewBox="0 0 154 154"
   sodipodi:docname="Screenshot 2024-08-03 194613.jpg"
   xmlns:inkscape="http://www.inkscape.org/namespaces/inkscape"
   xmlns:sodipodi="http://sodipodi.sourceforge.net/DTD/sodipodi-0.dtd"
   xmlns="http://www.w3.org/2000/svg"
   xmlns:svg="http://www.w3.org/2000/svg">
  <defs
     id="defs4250" />
  <sodipodi:namedview
     id="namedview4248"
     pagecolor="#505050"
     bordercolor="#eeeeee"
     borderopacity="1"
     inkscape:showpageshadow="0"
     inkscape:pageopacity="0"
     inkscape:pagecheckerboard="0"
     inkscape:deskcolor="#505050"
     showgrid="false" />
  <g
     inkscape:groupmode="layer"
     inkscape:label="Image"
     id="g4252">
    <path
       style="fill:#000000;stroke-width:0.174515"
       d="m 8.7742924,110.63283 c -0.2879504,-0.041 -0.6003223,-0.1492 -0.694161,-0.24044 -0.1926736,-0.18737 -0.2743643,-2.65208 -0.09739,-2.93843 0.081275,-0.13151 0.5296977,-0.13017 1.5308364,0.005 0.7787392,0.10481 2.3313982,0.16402 3.4503532,0.13159 1.74014,-0.0505 2.068742,-0.10591 2.271396,-0.38346 0.505006,-0.69162 -0.20002,-1.1327 -2.970729,-1.85854 -1.602109,-0.41972 -2.5803618,-0.87824 -3.2877421,-1.54106 -0.7845372,-0.73512 -0.9878825,-1.28885 -0.9878825,-2.69016 0,-1.11637 0.065864,-1.387215 0.5061713,-2.081508 0.5932893,-0.935525 1.7850093,-1.599873 3.4204233,-1.906789 1.201852,-0.225547 4.297215,-0.113746 5.540861,0.200123 l 0.828948,0.209214 v 1.572748 1.572762 l -0.654433,-0.11396 c -0.359938,-0.0626 -1.714613,-0.16005 -3.010389,-0.21639 -2.775144,-0.12063 -3.369685,0.0177 -3.283746,0.76469 0.06839,0.59441 0.972149,1.06785 2.910379,1.5246 3.319601,0.78228 4.447442,1.8311 4.45516,4.14298 0.0034,1.02529 -0.06221,1.26799 -0.518414,1.91709 -1.166073,1.65912 -2.405832,2.06728 -6.169154,2.03106 -1.494319,-0.0144 -2.9525373,-0.0597 -3.2404875,-0.10069 z m 15.7936356,-2.3052 v -2.44468 l -1.09072,-0.53974 c -0.599897,-0.29686 -1.297313,-0.73668 -1.549815,-0.9774 -1.15941,-1.10525 -1.711538,-2.98943 -1.71889,-5.865851 l -0.0035,-1.352494 h 1.745154 1.745153 l 9.64e-4,1.61427 c 0.0012,1.984735 0.190134,2.706535 0.881957,3.369345 0.475263,0.45533 0.658605,0.51362 1.615372,0.51362 1.181767,0 1.831657,-0.33014 2.232925,-1.13435 0.119731,-0.23996 0.251374,-1.31977 0.29254,-2.399585 l 0.07484,-1.9633 h 1.751426 1.751398 l -0.09288,2.29017 c -0.08784,2.165935 -0.124702,2.352515 -0.679511,3.440105 -0.626374,1.22787 -1.789685,2.29135 -2.832995,2.58986 l -0.545876,0.1562 -0.08725,2.5243 -0.08725,2.52431 -1.701524,0.05 -1.701525,0.05 v -2.44468 z m 9.889203,2.31569 c -0.06399,-0.064 -0.116344,-3.12673 -0.116344,-6.8061 v -6.689755 l 1.788781,0.006 1.788782,0.006 2.428062,3.658445 c 1.335435,2.01213 2.493781,3.65842 2.574101,3.65842 0.08033,0 0.146039,-1.65202 0.146039,-3.67114 v -3.671139 l 1.701524,0.04999 1.701525,0.04999 v 6.718839 6.71885 h -1.730259 -1.730263 l -2.412255,-3.56662 c -1.326741,-1.96164 -2.491788,-3.64616 -2.588994,-3.74335 -0.119306,-0.11931 -0.176737,1.05383 -0.176737,3.61023 v 3.78699 h -1.628809 c -0.895847,0 -1.681166,-0.0524 -1.745153,-0.11634 z m 13.89966,-0.2488 c 0.05252,-0.20082 1.258602,-3.26358 2.680189,-6.80609 l 2.584701,-6.440965 1.746677,0.003 1.746678,0.003 2.661359,6.674515 c 1.463748,3.671 2.661358,6.73249 2.661358,6.80333 0,0.0708 -0.817949,0.12881 -1.817667,0.12881 H 58.80242 l -0.514648,-1.3525 -0.51465,-1.3525 -2.435049,-0.0482 -2.435051,-0.0482 -0.487605,1.40073 -0.487606,1.40071 h -1.833252 c -1.7743,0 -1.830184,-0.0117 -1.737768,-0.36514 z m 7.802063,-7.04095 c -0.768363,-2.27312 -0.751643,-2.26462 -1.351799,-0.68798 -0.910121,2.39091 -0.967698,2.16056 0.540001,2.16056 h 1.309559 z m 8.14648,7.29583 c -0.06733,-0.0674 -0.122427,-3.13281 -0.122427,-6.81218 v -6.689755 l 3.621193,9.63e-4 c 1.991655,5.29e-4 3.910317,0.08132 4.263691,0.17943 1.902911,0.528442 3.284095,2.298199 3.284095,4.207932 0,1.74928 -0.778973,3.06853 -2.311571,3.91483 -0.851926,0.47043 -1.074424,0.5108 -3.137088,0.5691 l -2.220126,0.0627 -0.04857,2.29494 -0.04857,2.29493 -1.579096,0.0497 c -0.868506,0.0274 -1.634191,-0.005 -1.701525,-0.0728 z m 7.222786,-8.06947 c 0.291867,-0.23633 0.403267,-0.5077 0.403267,-0.98231 0,-1.07238 -0.457546,-1.30887 -2.532354,-1.30887 h -1.725819 v 1.30887 1.30885 h 1.725819 c 1.426187,0 1.795835,-0.0567 2.129087,-0.32654 z m 6.35424,8.06544 c -1.24078,-0.26238 -1.13435,-0.0908 -1.13435,-1.82904 v -1.58766 l 0.479917,0.11288 c 0.263955,0.0621 1.736427,0.15789 3.272162,0.21291 2.978678,0.10672 3.75208,-0.0175 3.75208,-0.60277 0,-0.64205 -0.6016,-0.94985 -3.315792,-1.69644 -2.709569,-0.74533 -3.850042,-1.7449 -4.104875,-3.59776 -0.276398,-2.009663 0.817131,-3.622174 2.883268,-4.251671 1.335978,-0.407043 4.836221,-0.46178 6.500696,-0.101674 l 1.003463,0.217097 v 1.5811 1.581098 l -0.654432,-0.11009 c -1.197985,-0.20155 -4.67548,-0.33624 -5.497699,-0.21293 -0.614937,0.0922 -0.839529,0.21175 -0.929316,0.49465 -0.174725,0.55051 0.57099,1.10339 2.070147,1.53482 2.771683,0.79763 3.552698,1.0848 4.11409,1.51268 1.684469,1.28387 1.643268,4.43343 -0.07514,5.74412 -1.109412,0.8462 -2.431287,1.11521 -5.369374,1.09273 -1.455196,-0.0112 -2.802875,-0.0535 -2.994841,-0.094 z m 11.954299,-6.6918 v -6.806105 h 5.060945 5.060955 v 1.566876 1.566869 l -3.359431,0.0474 -3.359421,0.0474 v 0.95983 0.95983 l 2.755346,0.0481 2.755351,0.0481 -0.0504,1.52254 -0.0504,1.52253 -2.704992,0.0873 -2.704988,0.0873 v 0.95983 0.95984 l 3.35942,0.0474 3.359431,0.0474 v 1.56687 1.56688 h -5.060958 -5.060945 z m 21.828281,6.41344 c -0.0837,-0.21596 -1.29741,-3.25908 -2.69732,-6.76247 l -2.54529,-6.369809 1.77028,-0.05008 c 0.97366,-0.02754 1.82724,0.01178 1.89685,0.0873 0.0697,0.07554 0.8551,2.201487 1.74551,4.724389 0.89043,2.52289 1.67736,4.52546 1.74874,4.45014 0.0713,-0.0754 0.85622,-2.1984 1.74409,-4.71796 l 1.61431,-4.581042 h 1.80463 c 1.08515,0 1.80462,0.06944 1.80462,0.174291 0,0.247548 -5.07933,12.955951 -5.2837,13.219761 -0.11394,0.14707 -0.70366,0.21814 -1.80986,0.21814 -1.54022,0 -1.65017,-0.0241 -1.79286,-0.39265 z m 14.29734,0.10157 c -1.70151,-0.59531 -3.02597,-1.98113 -3.47454,-3.63551 -0.11292,-0.41643 -0.18967,-2.51107 -0.19025,-5.19184 l -9.6e-4,-4.493765 h 1.65789 c 0.91186,0 1.65996,0.05887 1.66246,0.130889 0.002,0.07204 0.0222,2.054919 0.0436,4.406516 0.0427,4.67396 0.10956,5.0158 1.10864,5.67041 0.65855,0.43151 2.08398,0.43252 2.81059,0.002 1.02654,-0.60823 1.09355,-0.96538 1.09355,-5.82969 v -4.380152 h 1.75763 1.75764 l -0.0562,4.755552 c -0.054,4.57376 -0.072,4.79069 -0.47177,5.67526 -0.54931,1.21557 -1.95017,2.4953 -3.15878,2.88564 -1.16351,0.37577 -3.47204,0.37814 -4.53953,0.005 z m 10.93536,0.17474 c -0.064,-0.064 -0.11636,-3.12673 -0.11636,-6.8061 v -6.689755 h 4.97369 4.97368 v 1.570638 1.570647 h -3.22852 -3.22854 v 1.04709 1.0471 h 2.71177 2.7118 l -0.0504,1.527 -0.0504,1.52701 -2.66137,0.0482 -2.66136,0.0482 v 1.04254 1.04255 h 3.22854 3.22853 v 1.57064 1.57064 h -4.85733 c -2.67156,0 -4.90971,-0.0524 -4.97369,-0.11635 z M 77.095911,88.967078 c -1.391866,-0.456382 -2.540897,-1.536414 -3.048429,-2.865366 -0.471371,-1.234263 -0.320206,-2.976174 0.352728,-4.064618 0.577558,-0.934181 1.770666,-1.936608 2.492411,-2.094078 0.256406,-0.05594 0.564357,-0.131956 0.684336,-0.168919 0.246824,-0.07605 0.301319,-4.440413 0.1038,-8.313125 l -0.11293,-2.214188 -0.71531,-0.115926 c -1.891566,-0.306556 -3.805671,-1.732585 -4.727395,-3.52196 -1.212988,-2.35482 -0.926249,-4.923167 0.828518,-7.421113 0.183793,-0.261635 0.101321,-0.417154 -0.585331,-1.103808 l -0.799267,-0.799264 -1.030741,0.299644 c -1.2148,0.353151 -2.166799,0.185198 -3.134657,-0.553023 -2.523476,-1.924749 -1.077343,-6.177517 2.100632,-6.177517 2.678121,0 4.335689,2.5822 3.203593,4.990634 l -0.375322,0.798459 0.775888,0.775888 0.77589,0.775888 1.039183,-0.524633 c 0.57155,-0.288548 1.372944,-0.574853 1.780873,-0.636232 0.40793,-0.06137 0.741968,-0.161578 0.742308,-0.222668 3.49e-4,-0.06108 0.197245,-3.404907 0.43757,-7.430708 0.240324,-4.025799 0.377478,-7.373094 0.304785,-7.438432 -0.0727,-0.06535 -2.527392,-0.523423 -5.454886,-1.017969 -2.927495,-0.494543 -5.457052,-0.92825 -5.62124,-0.963794 -0.182709,-0.03955 -0.474375,0.165931 -0.751801,0.529654 -0.646905,0.848136 -1.686662,1.327584 -2.936911,1.354249 l -1.037334,0.02212 -1.084182,1.745154 c -0.596302,0.959833 -1.723557,2.793292 -2.505014,4.074351 l -1.42083,2.329199 0.692223,0.786408 c 1.010686,1.148199 1.472476,2.448642 1.474932,4.153538 0.0024,1.666166 -0.487885,2.914301 -1.63261,4.156182 l -0.718296,0.77926 2.068513,3.204026 c 1.137682,1.762216 2.588263,4.001729 3.223512,4.976696 l 1.155,1.772669 0.736394,-0.186919 c 2.633299,-0.668402 4.968723,2.156347 3.899173,4.71614 -1.024829,2.452759 -4.4424,2.878162 -5.987446,0.745288 -0.886119,-1.223253 -0.929062,-3.018136 -0.0959,-4.008295 0.230958,-0.274478 0.419926,-0.587909 0.419926,-0.696513 0,-0.108604 -0.758299,-1.353778 -1.685108,-2.767054 -0.926809,-1.413275 -2.339168,-3.567061 -3.138575,-4.786192 l -1.453463,-2.2166 -1.006167,0.353701 c -0.792061,0.278437 -1.284683,0.335275 -2.31503,0.267103 -0.719876,-0.04764 -1.465929,-0.132101 -1.657895,-0.187714 -0.286359,-0.08295 -0.606771,0.246714 -1.784418,1.835978 l -1.435388,1.937092 0.407823,0.549809 c 0.563394,0.759542 0.805056,1.568053 0.805056,2.693415 0,1.876785 -0.775292,3.220344 -2.414238,4.183805 -0.715305,0.420495 -0.994622,0.478687 -2.297676,0.478687 -2.224612,0 -3.423251,-0.707132 -4.402809,-2.597405 -0.559148,-1.079 -0.542503,-3.050002 0.03531,-4.181239 1.021827,-2.000526 3.102311,-2.934014 5.591629,-2.508898 l 0.787841,0.134544 1.219086,-1.70297 c 0.670496,-0.936634 1.243863,-1.759059 1.274146,-1.82761 0.03028,-0.06855 -0.258506,-0.521334 -0.641757,-1.006181 -1.495964,-1.892539 -1.913911,-4.779759 -0.964908,-6.665685 0.230121,-0.457316 0.220268,-0.468021 -1.342372,-1.458643 -1.449499,-0.918894 -1.598176,-0.976238 -1.876967,-0.723936 -0.842002,0.762 -2.637549,1.038254 -3.742284,0.575769 -0.79125,-0.331247 -1.827337,-1.539149 -1.969297,-2.295868 -0.311018,-1.65786 0.388757,-3.271279 1.713325,-3.950291 0.896007,-0.45932 2.414902,-0.510274 3.184709,-0.106835 1.522473,0.797891 2.389301,2.767401 1.84643,4.195258 -0.149639,0.39358 -0.0549,0.490023 1.400478,1.425695 l 1.560974,1.003561 0.793934,-0.731825 c 1.297537,-1.196029 2.127677,-1.487251 4.171042,-1.463249 0.959833,0.01127 1.934868,0.05002 2.166743,0.08611 0.380781,0.05926 0.671817,-0.335305 3.006414,-4.075888 l 2.584823,-4.141503 -0.367923,-0.623585 c -0.480951,-0.81515 -0.481884,-2.225038 -0.0021,-3.1655 l 0.349141,-0.684368 -0.8177,-0.864158 C 59.745361,33.9255 58.51497,32.594247 57.460895,31.442446 55.440568,29.234811 55.455952,29.24346 54.154317,29.583803 c -1.500963,0.392461 -3.442687,-0.576207 -4.046578,-2.018718 -0.585648,-1.398934 -0.04157,-3.381542 1.138541,-4.14885 1.057306,-0.68746 1.987974,-0.850505 3.042976,-0.533103 0.498359,0.149933 1.064888,0.409413 1.258955,0.576622 1.235111,1.064175 1.629602,2.751911 0.964413,4.126006 -0.462528,0.955459 -0.73414,0.524282 2.688896,4.268544 2.018925,2.208386 2.496537,2.644298 2.792245,2.548463 1.276803,-0.413802 2.012797,-0.485673 2.742752,-0.267836 0.944885,0.281977 1.985784,1.342208 2.238261,2.279834 0.132347,0.491501 0.300891,0.72217 0.573797,0.785292 2.193166,0.507269 11.117476,1.944002 11.11974,1.790178 3.48e-4,-0.024 0.196681,-2.713715 0.436286,-5.977151 0.571133,-7.778916 0.583103,-7.293465 -0.186705,-7.571831 -1.96009,-0.708779 -3.284689,-3.419132 -2.710034,-5.545192 0.107991,-0.399538 0.457496,-1.106325 0.776672,-1.570637 1.707311,-2.483647 5.787027,-2.533026 7.518811,-0.09101 0.727407,1.025732 0.941822,1.679144 0.955443,2.911625 0.02033,1.839669 -1.048877,3.480451 -2.777263,4.261918 -0.431926,0.19529 -0.9077,0.356797 -1.057277,0.358905 -0.233278,0.0033 -0.3389,0.964247 -0.74264,6.756625 -0.258873,3.714037 -0.411355,6.805189 -0.338845,6.869226 0.118825,0.104943 6.496461,1.21805 6.95355,1.213625 0.104572,-9.64e-4 0.275181,-0.188505 0.37913,-0.416648 0.987217,-2.166706 3.986253,-3.195273 6.236836,-2.139024 1.126496,0.528688 1.779652,1.19289 2.316643,2.355817 0.564696,1.222925 0.492549,2.893995 -0.176642,4.091309 l -0.439536,0.786411 0.830247,0.817764 0.830241,0.817761 0.737467,-0.534214 c 1.514172,-1.096852 3.222241,-1.453005 5.750621,-1.199067 0.40201,0.04038 0.46115,-0.08106 1.084,-2.225993 0.96278,-3.315537 0.94727,-3.077803 0.23107,-3.539401 -2.10671,-1.357807 -1.84969,-4.628465 0.45615,-5.804822 0.74153,-0.378298 2.11266,-0.452024 2.89678,-0.15576 1.21716,0.459871 2.03103,1.714203 2.03103,3.130172 0,0.534444 -0.1216,1.191867 -0.27437,1.483381 -0.5798,1.106302 -1.96115,2.006926 -3.07816,2.006926 -0.46079,0 -0.54324,0.08746 -0.78167,0.828948 -0.30972,0.963185 -1.33214,4.510074 -1.33214,4.621308 0,0.0415 0.38522,0.325067 0.85604,0.63015 1.14143,0.739623 1.87493,1.60567 2.52909,2.986125 0.48995,1.033914 0.5408,1.30034 0.53455,2.800512 -0.006,1.482288 -0.0639,1.778047 -0.54476,2.792245 -0.67839,1.430746 -1.50394,2.373812 -2.71441,3.100788 -2.77988,1.669535 -6.467995,1.127673 -8.661706,-1.272584 -0.480362,-0.525595 -0.938071,-0.957224 -1.017127,-0.959175 -0.07905,-0.002 -2.785372,1.151913 -6.014031,2.564141 l -5.870291,2.56769 0.09127,1.057051 c 0.0502,0.581379 0.115763,1.085625 0.145694,1.120547 0.02993,0.03493 5.064976,1.075202 11.188991,2.311734 10.14972,2.049382 11.15002,2.222291 11.30909,1.954887 0.47273,-0.794622 1.66249,-1.89549 2.44322,-2.26067 0.97721,-0.457087 2.58438,-0.551917 3.59515,-0.212131 0.97788,0.328729 2.1884,1.35907 2.71698,2.312571 0.43365,0.782252 0.49397,1.072191 0.49397,2.374439 0,1.301397 -0.0585,1.58282 -0.4765,2.293934 -0.95556,1.625479 -2.47586,2.486342 -4.37122,2.475173 -2.34003,-0.01379 -4.21266,-1.578501 -4.6973,-3.924943 -0.11573,-0.560275 -0.2573,-1.01868 -0.31462,-1.01868 -0.0572,0 -4.98317,-0.981648 -10.946332,-2.181441 -5.96316,-1.199793 -10.962176,-2.181442 -11.108924,-2.181442 -0.146749,0 -0.398714,0.27795 -0.55992,0.617669 -0.413157,0.870666 -1.688763,2.240508 -2.564028,2.753448 -0.407678,0.238915 -1.202652,0.568528 -1.766606,0.732475 l -1.025374,0.298082 0.112446,2.990995 c 0.06184,1.645045 0.120679,3.903574 0.130742,5.018949 0.01007,1.115375 0.06849,2.105077 0.129822,2.199336 0.06134,0.09426 0.537262,0.311538 1.057611,0.482839 2.542881,0.83713 3.905253,3.622377 2.977006,6.086225 -0.412144,1.093954 -1.331894,2.157943 -2.299546,2.660183 -0.639372,0.33185 -2.757695,0.494068 -3.457087,0.264739 z m 2.624101,-1.985125 c 1.164901,-0.58849 1.611398,-1.364488 1.531305,-2.661359 -0.105523,-1.708597 -1.11722,-2.719022 -2.734992,-2.731552 -1.019751,-0.0079 -1.772371,0.349916 -2.361994,1.122952 -1.440098,1.888064 -0.09131,4.560292 2.345483,4.646879 0.243616,0.0087 0.792706,-0.160958 1.220198,-0.37692 z M 66.115998,73.252294 c 1.47381,-1.473807 -0.635331,-3.799422 -2.162322,-2.384253 -0.579102,0.536691 -0.741954,1.187904 -0.464548,1.857623 0.473744,1.143719 1.753267,1.400236 2.62687,0.52663 z m 46.596442,-1.173838 c 0.82806,-0.331329 1.66547,-1.367436 1.83483,-2.270205 0.37943,-2.022561 -1.67146,-4.01015 -3.668,-3.55478 -1.40872,0.321302 -2.22675,1.291199 -2.33349,2.766708 -0.17403,2.405992 1.93254,3.95219 4.16666,3.058277 z M 46.287636,69.380131 c 1.625102,-1.113539 1.768116,-3.491755 0.285018,-4.739698 -0.712629,-0.599639 -1.696783,-0.869479 -2.417386,-0.662811 -1.801823,0.516756 -2.759522,2.00856 -2.325115,3.621825 0.542329,2.014048 2.800425,2.916118 4.457483,1.780684 z M 79.802028,66.893812 C 83.011096,65.39284 83.58756,61.25814 80.921902,58.861483 79.92714,57.967107 78.90824,57.633809 77.49454,57.740336 c -1.207076,0.09096 -2.026259,0.45704 -2.881446,1.287682 -1.727615,1.678029 -1.957472,4.377812 -0.537142,6.308997 1.334292,1.814199 3.763634,2.474685 5.726076,1.556797 z m 8.654538,-9.983849 c 2.534744,-1.110257 5.15835,-2.248079 5.830233,-2.528491 l 1.221608,-0.509837 v -1.985356 c 0,-1.934902 0.01591,-2.016389 0.626009,-3.20635 l 0.62601,-1.220991 -0.62601,-0.607781 c -0.899234,-0.873051 -0.934142,-0.880204 -1.961554,-0.401917 -1.36616,0.635982 -3.082775,0.615955 -4.359201,-0.05085 -1.183403,-0.618219 -2.16348,-1.873501 -2.445029,-3.131597 -0.112884,-0.504421 -0.235323,-0.917129 -0.272088,-0.917129 -0.03677,0 -0.632892,-0.111815 -1.324724,-0.248477 -3.464893,-0.684444 -5.376183,-1.014107 -5.450227,-0.940063 -0.0451,0.0451 -0.197964,1.646383 -0.339698,3.558403 -0.604775,8.158625 -0.779631,11.147452 -0.658157,11.250021 0.07109,0.06003 0.496329,0.244136 0.94497,0.409133 1.028622,0.378301 2.064845,1.124198 2.677327,1.927204 0.26124,0.342505 0.57104,0.622735 0.688444,0.622735 0.117401,0 2.287341,-0.908394 4.822087,-2.018652 z m -33.168788,0.968931 c 2.709283,-1.382173 3.282572,-4.900232 1.146596,-7.036208 -0.876644,-0.876644 -1.568746,-1.195024 -2.815296,-1.295083 -3.305272,-0.265316 -5.640169,3.254117 -4.204426,6.337414 0.993721,2.134043 3.75852,3.072668 5.873126,1.993877 z m 48.906262,-1.201775 c 2.19077,-0.93907 3.57535,-3.433981 3.10998,-5.603933 -0.36599,-1.70655 -1.27522,-2.989242 -2.66434,-3.758748 -0.8243,-0.456613 -1.0963,-0.514638 -2.41243,-0.514638 -1.32065,0 -1.58673,0.05723 -2.425533,0.521776 -0.585497,0.324254 -1.186145,0.852769 -1.586681,1.396123 -1.064939,1.444677 -1.350153,2.550733 -1.045842,4.055755 0.359152,1.776242 1.456892,3.186667 3.039726,3.905587 0.97548,0.443059 2.94925,0.442108 3.98512,-0.0019 z M 70.475125,54.735075 c 0.512835,-0.274463 0.875463,-1.110038 0.751259,-1.731066 -0.134735,-0.673669 -0.979746,-1.405038 -1.623357,-1.405038 -0.585994,0 -1.369883,0.579638 -1.599053,1.182405 -0.214579,0.564382 0.08767,1.516417 0.594001,1.871073 0.431723,0.302389 1.387877,0.344476 1.87715,0.08263 z M 42.876123,48.029637 c 0.992484,-0.513234 1.125837,-2.014885 0.240752,-2.711091 -1.057824,-0.832085 -2.668052,-0.04344 -2.668052,1.306738 0,0.472087 0.132452,0.770104 0.510122,1.147774 0.569391,0.569391 1.159534,0.648371 1.917178,0.256579 z m 50.380849,-3.045745 c 1.03095,-0.468201 1.527145,-1.252672 1.606325,-2.539552 0.05452,-0.886109 -8.72e-4,-1.151398 -0.347217,-1.661166 -1.249643,-1.839592 -3.602474,-1.907768 -4.91019,-0.142277 -0.525527,0.709492 -0.59608,2.168283 -0.147399,3.047769 0.724032,1.419223 2.324085,1.964816 3.798481,1.295226 z M 64.89021,38.587742 c 0.948381,-1.009506 0.277611,-2.69515 -1.072482,-2.69515 -0.895802,0 -1.176151,0.135171 -1.473688,0.710543 -0.393544,0.76103 -0.315345,1.350462 0.254804,1.92061 0.684016,0.684016 1.682685,0.711907 2.291366,0.064 z m 43.01367,-0.460428 c 0.80888,-0.368554 1.20274,-1.620161 0.7664,-2.435486 -0.10371,-0.193781 -0.4571,-0.464535 -0.78532,-0.601672 -0.5143,-0.214883 -0.67802,-0.215386 -1.18477,-0.0037 -1.13205,0.473008 -1.48174,1.567971 -0.78401,2.454996 0.58801,0.747531 1.22242,0.934508 1.9877,0.585822 z M 54.435656,27.405422 c 0.54501,-0.493226 0.731838,-1.362701 0.421685,-1.962471 -0.752579,-1.455327 -2.430468,-1.378712 -3.059415,0.139697 -0.436222,1.053134 0.680858,2.405319 1.815352,2.197421 0.281653,-0.05162 0.651722,-0.220204 0.822378,-0.374647 z m 27.55479,-3.956251 c 0.842403,-0.445473 1.563661,-1.563312 1.563661,-2.423436 0,-0.596219 -0.41792,-1.655159 -0.835191,-2.116239 -0.492482,-0.544187 -1.271694,-0.857741 -2.131569,-0.857741 -1.654225,0 -2.792245,1.138914 -2.792245,2.794437 0,1.344711 0.462784,2.106559 1.658285,2.729911 0.740187,0.385944 1.653616,0.340244 2.537059,-0.126932 z"
       id="path5859" />
  </g>
</svg>
